<svg viewBox="0 0 16 16" fill="none" xmlns="http://www.w3.org/2000/svg">
  <path d="M9.41406 8L14.707 2.70703C15.0977 2.31641 15.0977 1.68359 14.707 1.29297L13.707 0.292969C13.3164 -0.0976562 12.6836 -0.0976562 12.293 0.292969L7 5.58594L1.70703 0.292969C1.31641 -0.0976562 0.683594 -0.0976562 0.292969 0.292969L-0.707031 1.29297C-1.09766 1.68359 -1.09766 2.31641 -0.707031 2.70703L4.58594 8L-0.707031 13.293C-1.09766 13.6836 -1.09766 14.3164 -0.707031 14.707L0.292969 15.707C0.683594 16.0977 1.31641 16.0977 1.70703 15.707L7 10.4141L12.293 15.707C12.6836 16.0977 13.3164 16.0977 13.707 15.707L14.707 14.707C15.0977 14.3164 15.0977 13.6836 14.707 13.293L9.41406 8Z" fill="currentColor"/>
</svg>
